<?xml version="1.0" encoding="utf-8"?>
<!-- Generator: Adobe Illustrator 28.0.0, SVG Export Plug-In . SVG Version: 6.00 Build 0)  -->
<svg version="1.1" id="Layer_1" xmlns="http://www.w3.org/2000/svg" xmlns:xlink="http://www.w3.org/1999/xlink" x="0px" y="0px"
	 viewBox="0 0 3355 496.5" style="enable-background:new 0 0 3355 496.5;" xml:space="preserve">
<style type="text/css">
	.st0{fill:#171516;}
	.st1{fill:#FFFFFF;}
	.st2{fill:#FDFDFD;}
</style>
<g>
	<path class="st0" d="M472.4,270c-12,117.7-116.2,210.7-236.1,200.9c-51.4-4.2-96-24-133.9-59.5C27.6,341.3,9.3,229.1,59.1,139.2
		C99.6,66,174.5,23.2,258.3,25C387.7,27.8,485,142.2,472.4,270z M465.5,243.9C463.1,122.5,361.7,26.4,240.1,33.2
		C126.3,39.6,39.2,135.1,39.2,247.9c0,100.1,72.7,191.3,171.3,211.3c54,10.9,110.3,0.4,156-29.7C428,389.2,467,318.1,465.5,243.9z"
		/>
	<path class="st1" d="M240.1,33.2c121.6-6.8,223,89.3,225.4,210.7c1.5,74.2-37.5,145.3-99,185.6c-45.7,30-102,40.6-156,29.7
		c-98.6-20-171.3-111.2-171.3-211.3C39.2,135.1,126.3,39.6,240.1,33.2z M282.6,208.7c3.5-8.3,11-14.6,14.1-22.8
		c2.6-6.8,3.2-14-0.6-20.6c-0.2-0.3-0.6-0.4-0.9-0.2c-0.1,0-0.2,0.1-0.2,0.2c-3.8,5.7-8.1,10.9-12.9,15.8c-0.1,0.1-0.3,0.2-0.4,0
		l-0.2-0.2c-0.1,0-0.1-0.1,0-0.2c5.7-7.8,9.2-16.1,10.7-24.9c5.7-35-7.3-68.2-31.1-93.8c0-0.1-0.1-0.1-0.2-0.1c-0.2,0-0.4,0-0.4,0.2
		c0,0.1,0,0.2,0,0.3c7.1,16.5,6.5,35.9,1.6,52.9c-2,7-4,12.6-6,16.7c-6.2,13.1-10.3,22.1-7.9,35.5c0.3,1.8,1.4,5.3,3.2,10.5
		c0.1,0.3,0,0.4-0.3,0.4c-0.2,0-0.3-0.1-0.5-0.4c-3-4.7-5.6-9.5-8-14.4c-0.1-0.2-0.3-0.2-0.4-0.1c-0.1,0-0.1,0.1-0.1,0.1
		c-7.3,15.7-12.9,33.5-13.1,50.8c-0.2,15.2,6.4,25.8,17.1,35.9c0.4,0.4,0.6,0.7,0.8,1.1c0.1,0.3,0,0.5-0.3,0.6c-0.1,0-0.1,0-0.2,0
		c-9.6,0.1-18.3-8.2-22.5-15.9c-0.9-1.6-1.3-1.5-1.4,0.3c-0.7,12.5,5.5,24.7,14.1,33.5c1.9,2,3.6,3.8,5,5.5c0.9,1,0.6,1.4-0.7,1.1
		c-9-1.9-20.1-12.9-21.8-22c0-0.1-0.1-0.2-0.2-0.2c-0.1,0-0.2,0-0.3,0c-0.1,0-0.3,0.1-0.3,0.2c-1.4,10.9,0.2,21.2,4.8,31
		c4.5,9.6,10.8,14,20.1,18.5c1,0.5,1.6,1.5,1.6,2.6l-0.9,19.9c0,0.9-0.5,1.3-1.4,1.3c-6.6-0.3-12.6-0.8-18-1.3c-1-0.1-2-0.1-2.8,0.1
		c-0.7,0.2-0.7,0.4,0,0.6c6.8,2.3,14.3,3.1,21.4,4.6c0.4,0.1,0.6,0.3,0.5,0.7l-0.6,18.8c0,0.6-0.3,0.8-0.9,0.9
		c-17.9,1-36,3.3-52.6,9.9c-12.4,4.9-25.4,15-20.3,30.5c2.9,8.8,9.8,16.6,16.7,22.6c12.4,10.8,25.9,20,40.5,27.5c0,0,0.1,0,0.1,0
		l0.2-0.2c0.3-0.2,0.3-0.4,0-0.6c-13.1-8.9-23.3-16.6-30.7-23.3c-6.6-6-13.4-13.3-17.5-21.2c-6.8-13.2,5.3-22,15.7-26.3
		c15.5-6.3,33.4-8,50-8c0.1,0,0.3,0.1,0.3,0.2l0.8,10.4c0,0.3-0.2,0.5-0.5,0.6l-2.8,0.3c-0.2,0-0.4,0.2-0.3,0.4c0,0,0,0,0,0
		c3,18.2,6,36.3,9,54.4c0.2,0.9,0.5,1.6,1.1,2c0.8,0.6,1.8,0.4,2.4-0.4c0.1-0.2,0.2-0.4,0.3-0.6l11.4-54.2c0.1-0.6-0.3-1.2-0.9-1.3
		c0,0-0.1,0-0.1,0l-2.1-0.3c-0.3,0-0.4-0.2-0.4-0.5l0.6-10.8c0-0.4,0.3-0.7,0.7-0.7c8.6,0,17.3-0.1,26-0.5c9.2-0.4,26.2-1.5,32.8-9
		c3.9-4.5,0.7-9.5-3.6-11.9c-2.8-1.5-5.7-2.8-8.8-3.6c-14.1-4.1-28.9-5.9-43.4-7.4c-0.6-0.1-1-0.5-0.9-1.1l0.9-16.7
		c0-0.4,0.2-0.6,0.6-0.7c18.7-3.1,26.6-28.2,28.8-43.9c0-0.2-0.1-0.3-0.2-0.2c-0.3,0.1-0.6,0.2-0.8,0.5
		c-8.1,9.5-20.3,18.4-33.2,12.2c-0.1,0-0.1,0-0.2,0.1c0,0,0,0,0,0l-2.4,48.2c0,0.2-0.2,0.4-0.4,0.4c0,0,0,0,0,0l-8.3-0.3
		c-0.2,0-0.2-0.1-0.2-0.2c1-34.4,3.3-68.7,7.1-102.9c1.8-16.8,4.6-34,7.1-50.9c1.3-8.8,3.7-21.1,7.2-36.9c0-0.1,0.1-0.2,0.2-0.1l0,0
		c0.1,0,0.2,0.1,0.2,0.2c-0.8,8.3-1.9,17-2.5,24.9c-2.8,34.6-5.2,69.2-7,103.8c-0.1,2.4-0.2,4.8-0.2,7.2c0,0.4,0.2,0.5,0.5,0.6
		c7.7,0.8,17.2-3.7,23.1-8.4c15.8-12.9,22-35.5,20.5-54.7c-0.2-2.4-0.5-2.4-1.1-0.1c-2.3,9.1-12.8,31.6-24.1,32.4
		c-1.4,0.1-1.6-0.3-0.6-1.3c2.7-2.8,5.1-6,7.2-9.7c6.6-11.5,10.5-23.8,11.8-36.8c0.1-0.8-0.2-1-0.8-0.4l-15.9,13.5
		C282.5,209.2,282.4,209.1,282.6,208.7z"/>
	<path class="st0" d="M282.8,208.9l15.9-13.5c0.6-0.5,0.9-0.4,0.8,0.4c-1.2,13-5.2,25.2-11.8,36.8c-2.1,3.7-4.5,6.9-7.2,9.7
		c-0.9,1-0.7,1.4,0.6,1.3c11.3-0.8,21.8-23.3,24.1-32.4c0.6-2.3,1-2.3,1.1,0.1c1.4,19.2-4.8,41.8-20.5,54.7
		c-5.8,4.8-15.4,9.2-23.1,8.4c-0.4,0-0.5-0.2-0.5-0.6c0-2.4,0.1-4.9,0.2-7.2c1.9-34.6,4.2-69.2,7-103.8c0.6-7.8,1.8-16.5,2.5-24.9
		c0-0.1,0-0.2-0.2-0.2l0,0c-0.1,0-0.2,0-0.2,0.1c-3.5,15.9-5.9,28.2-7.2,36.9c-2.5,16.9-5.3,34.1-7.1,50.9
		c-3.8,34.1-6.1,68.4-7.1,102.9c0,0.2,0.1,0.2,0.2,0.2l8.3,0.3c0.2,0,0.4-0.2,0.4-0.4c0,0,0,0,0,0l2.4-48.2c0-0.1,0.1-0.1,0.1-0.1
		c0,0,0,0,0,0c13,6.2,25.2-2.8,33.2-12.2c0.2-0.2,0.5-0.4,0.8-0.5c0.2,0,0.3,0,0.2,0.2c-2.2,15.7-10.1,40.8-28.8,43.9
		c-0.4,0.1-0.6,0.3-0.6,0.7l-0.9,16.7c0,0.5,0.4,1,0.9,1.1c14.5,1.5,29.3,3.3,43.4,7.4c3.1,0.9,6,2.1,8.8,3.6
		c4.3,2.4,7.5,7.5,3.6,11.9c-6.6,7.5-23.6,8.6-32.8,9c-8.7,0.4-17.4,0.6-26,0.5c-0.4,0-0.7,0.3-0.7,0.7l-0.6,10.8
		c0,0.3,0.1,0.4,0.4,0.5l2.1,0.3c0.6,0.1,1.1,0.7,1,1.3c0,0,0,0.1,0,0.1l-11.4,54.2c-0.2,0.9-1.1,1.5-2,1.3c-0.2,0-0.5-0.1-0.6-0.3
		c-0.6-0.4-1-1.1-1.1-2c-3-18-6-36.2-9-54.4c0-0.2,0.1-0.4,0.3-0.5c0,0,0,0,0,0l2.8-0.3c0.3,0,0.5-0.3,0.5-0.6l-0.8-10.4
		c0-0.1-0.1-0.3-0.3-0.2c-16.6,0-34.5,1.7-50,8c-10.4,4.3-22.5,13.1-15.7,26.3c4.1,8,10.9,15.2,17.5,21.2
		c7.4,6.6,17.6,14.4,30.7,23.3c0.3,0.2,0.3,0.4,0,0.6l-0.2,0.2c0,0-0.1,0-0.1,0c-14.6-7.5-28.1-16.6-40.5-27.5
		c-6.9-6-13.8-13.8-16.7-22.6c-5.1-15.5,7.9-25.5,20.3-30.5c16.6-6.6,34.7-8.9,52.6-9.9c0.6,0,0.8-0.3,0.9-0.9l0.6-18.8
		c0-0.4-0.2-0.6-0.5-0.7c-7.1-1.5-14.5-2.3-21.4-4.6c-0.7-0.2-0.7-0.4,0-0.6c0.8-0.2,1.7-0.2,2.8-0.1c5.4,0.5,11.4,1,18,1.3
		c0.9,0,1.4-0.4,1.4-1.3l0.9-19.9c0-1.1-0.6-2.1-1.6-2.6c-9.3-4.4-15.6-8.8-20.1-18.5c-4.6-9.8-6.2-20.2-4.8-31
		c0-0.1,0.1-0.3,0.3-0.2c0.1,0,0.2,0,0.3,0c0.1,0,0.2,0.1,0.2,0.2c1.7,9.1,12.7,20.1,21.8,22c1.3,0.3,1.5-0.1,0.7-1.1
		c-1.4-1.7-3.1-3.5-5-5.5c-8.6-8.8-14.8-21.1-14.1-33.5c0.1-1.8,0.6-1.9,1.4-0.3c4.2,7.7,12.8,16,22.5,15.9c0.3,0,0.5-0.2,0.5-0.5
		c0-0.1,0-0.1,0-0.2c-0.1-0.4-0.4-0.7-0.8-1.1c-10.7-10.1-17.3-20.6-17.1-35.9c0.2-17.4,5.9-35.2,13.1-50.8c0.1-0.2,0.3-0.2,0.4-0.1
		c0.1,0,0.1,0.1,0.1,0.1c2.4,4.9,5,9.7,8,14.4c0.2,0.2,0.3,0.4,0.5,0.4c0.3,0,0.4-0.1,0.3-0.4c-1.8-5.2-2.9-8.6-3.2-10.5
		c-2.5-13.4,1.7-22.5,7.9-35.5c1.9-4.1,3.9-9.7,6-16.7c4.9-17,5.5-36.4-1.6-52.9c0-0.1-0.1-0.2,0-0.3c0-0.2,0.2-0.3,0.4-0.2
		c0.1,0,0.1,0,0.2,0.1c23.8,25.6,36.9,58.8,31.1,93.8c-1.4,8.8-5,17.1-10.7,24.9c0,0.1,0,0.1,0,0.2l0.2,0.2c0.2,0.1,0.3,0.1,0.4,0
		c4.8-4.9,9.1-10.2,12.9-15.8c0.2-0.3,0.6-0.4,0.9-0.2c0.1,0.1,0.2,0.1,0.2,0.2c3.8,6.6,3.3,13.7,0.6,20.6
		c-3.2,8.2-10.7,14.6-14.1,22.8C282.4,209.1,282.5,209.2,282.8,208.9z M258.5,335.8c0-0.3-0.2-0.6-0.5-0.6l-7.4-1.2
		c-0.3-0.1-0.7,0.2-0.7,0.5c0,0,0,0.1,0,0.1l-0.6,16.5c0,0.3,0.3,0.6,0.6,0.6c0,0,0,0,0,0l7.6,0c0.3,0,0.6-0.3,0.6-0.6c0,0,0,0,0,0
		L258.5,335.8z M306.6,347.8c-1.9-2.7-9.8-4.6-13-5.4c-9.3-2.1-18.6-3.8-27.8-5.2c-0.4-0.1-0.6,0.1-0.6,0.5l-0.4,13.2
		c0,0.4,0.2,0.6,0.5,0.6c11.2,0.4,22.4,0.3,33.7-0.4c2.5-0.1,4.7-0.7,6.9-1.5c0.6-0.2,0.9-0.9,0.7-1.5
		C306.7,348,306.6,347.9,306.6,347.8z"/>
	<path class="st2" d="M258.5,335.8l-0.4,15.4c0,0.3-0.3,0.6-0.6,0.6c0,0,0,0,0,0l-7.6,0c-0.3,0-0.6-0.3-0.6-0.6c0,0,0,0,0,0
		l0.6-16.5c0-0.3,0.3-0.6,0.6-0.6c0,0,0.1,0,0.1,0l7.4,1.2C258.2,335.3,258.5,335.5,258.5,335.8z"/>
	<path class="st2" d="M293.6,342.4c3.2,0.7,11,2.7,13,5.4c0.4,0.5,0.3,1.3-0.3,1.7c-0.1,0.1-0.2,0.1-0.3,0.1
		c-2.2,0.8-4.5,1.4-6.9,1.5c-11.3,0.7-22.5,0.8-33.7,0.4c-0.4,0-0.6-0.2-0.5-0.6l0.4-13.2c0-0.4,0.2-0.6,0.6-0.5
		C275,338.6,284.3,340.4,293.6,342.4z"/>
</g>
<g>
	<path d="M528.2,125.5v-8.9c15.6,0.8,25.3,1.4,29.1,1.7c14,0.6,23.5,0.8,28.3,0.8c1.7,0,8.8-0.3,21.5-0.8
		c12.7-0.5,24.6-1.1,35.7-1.7v9.7c-12.1,0-20.4,0.7-24.8,2c-4.4,1.3-7.7,3.9-9.9,7.7c-4.5,8.7-6.8,41.8-6.8,99.4
		c0,39.7,0,64.8,0.1,75.3c0.1,10.5,0.3,21.8,0.7,33.8c0.3,9.6,1,16.5,2.3,20.5s4.6,7,10.1,9c5.5,2,14.4,3.1,26.6,3.2l-0.8,7.8
		c-1.9,0-5.8-0.1-11.5-0.3c-5.7-0.2-11.6-0.4-17.8-0.5c-6.1-0.1-10.8-0.2-14.1-0.3c-3.3-0.1-7.1-0.1-11.4-0.1
		c-6.1,0-11.1,0-15.2,0.1c-4.1,0.1-9.5,0.2-16.2,0.3c-6.7,0.1-12.8,0.3-18.3,0.5c-5.4,0.2-8.7,0.3-9.8,0.3l-0.4-7.8
		c14.9-0.8,24.9-2.5,30.2-5.2c5.2-2.6,8.8-6.8,10.7-12.6c2.8-7.4,4.5-21.5,5.3-42.2c0.8-20.7,1.1-42.5,1.1-65.5
		c0-20.8-0.7-50.6-2.1-89.6c-0.4-10.7-1.5-18.4-3.2-23c-1.7-4.6-5.6-8-11.6-10.2C550.2,126.8,540.8,125.6,528.2,125.5z"/>
	<path d="M659.7,381.4l-0.4-6c7.4-1.4,12.9-2.8,16.3-4.3c3.4-1.5,5.7-3.2,6.8-5.2c1.1-1.9,1.9-4.5,2.3-7.8
		c1.1-7.6,1.9-16.8,2.3-27.8s0.6-22.1,0.6-33.4c0-15.7-0.5-26.4-1.5-32.1c-1-5.7-3.2-9.3-6.6-10.9c-3.4-1.6-9.7-2.9-18.9-3.8
		c0-1.8-0.1-3.2-0.4-4c5.9-1.5,13.9-4.5,23.7-8.8c9.9-4.4,15.1-6.8,15.7-7.4c5.3-2.8,8.4-4.2,9.3-4.2c2.1,0,3.4,2,3.9,6
		c0.6,4,0.8,10.6,0.8,19.8c15.1-8.5,27.6-14.6,37.3-18.3c9.8-3.6,19.1-5.5,28-5.5c13.3,0,23.1,2.9,29.2,8.8
		c6.1,5.9,9.9,12.9,11.3,21.3c1.4,8.3,2.2,19.3,2.2,32.9v49.2c0,19.4,0.9,30,2.7,31.8c1,1,4.5,2.1,10.5,3.5
		c6.1,1.4,9.6,2.3,10.5,2.7l0.4,6.4c-10.3-1.7-22.3-2.5-35.9-2.5c-11.6,0-25.4,0.8-41.5,2.5v-6c12.5-2.5,20.3-6.4,23.3-11.8
		c2.1-4.5,3.5-14.1,4.2-28.8c0.8-14.7,1.1-26.1,1.1-34.2c0-12.1-0.5-22.1-1.5-29.8c-1-7.8-3.9-14.4-8.6-19.9
		c-4.7-5.5-12-8.3-21.8-8.3c-4.4,0-11.1,0.9-20,2.7c-8.9,1.8-19.4,5.9-31.5,12.2l-1.2,54.9c-0.3,23.4,0,38.9,0.8,46.5
		c0.3,3.3,0.9,5.8,2,7.4c1,1.7,3.3,3.1,6.9,4.4c3.6,1.3,9.6,2.4,18.2,3.4l-0.4,6.4c-3-0.3-7.4-0.6-13-1c-5.7-0.4-12.9-0.8-21.7-1
		H659.7z"/>
	<path d="M856.2,384.7v-6.8c6.5-0.7,11.3-1.7,14.5-3c3.2-1.3,5.4-3.2,6.8-5.6c1.4-2.4,2.4-6,3.1-10.8c1-10.6,1.7-26.2,2.1-46.8
		s0.8-41.3,1-62c0.3-20.7,0.4-37,0.4-48.8c0-30.7-1.3-50.8-3.9-60.5c-1.9-5.9-5.2-8.9-9.7-8.9c-2.2,0-4.6,0.5-7.3,1.4
		c-2.7,1-4.7,1.8-6.1,2.5l0.4-6.9c1.1-0.7,2.8-1.6,5.1-2.8c2.3-1.2,4.2-2.1,5.8-2.9c1.6-0.8,3.7-1.8,6.4-3c2.7-1.2,5.3-2.4,7.7-3.5
		c8.7-3.7,15-6.7,19-8.8c4-2.1,7-4.6,8.9-7.4h6.2c-1.5,5-2.9,14.2-4.1,27.8c-1.2,13.6-2.2,31-3,52.3c-0.8,21.3-1.2,39.5-1.4,54.6
		c-0.2,15.1-0.3,24.5-0.3,28.1l-0.4,28.3c2.8-1,8.9-4.6,18.5-10.9c9.6-6.3,18-12.9,25.3-19.7c7.3-6.8,10.9-12.4,10.9-16.6
		c0-3.4-1.3-5.8-3.8-7c-2.5-1.2-6.4-2.1-11.5-2.7v-6l19,0.4c4,0.3,13.1,0.4,27.5,0.4c7,0,18.4-0.1,34.3-0.4l-0.8,7.8
		c-8.7,0.8-16.8,2.9-24.5,6.2c-7.6,3.3-18.6,9.6-32.7,19l-35.5,23.8c4.4,4.6,22.4,22.1,53.9,52.5c16.2,16.3,27.9,26.7,35,31.2
		c7.1,4.5,13.7,7.3,19.9,8.4v7.2c-1.9-0.3-4-0.5-6.1-0.7c-2.1-0.2-4-0.3-5.6-0.4c-1.6-0.1-5.2-0.1-10.8-0.1H1004
		c-14.9,0-27,0.4-36.4,1.2v-7.2c1.5-0.4,3.8-0.8,6.9-1.2c3.1-0.4,5.5-0.9,7.3-1.3c1.8-0.5,2.7-1.1,2.7-2c0-1.4-2.2-4.7-6.6-10
		c-4.4-5.3-8-9.3-10.7-12.1c-11.3-11.4-21.6-21.5-30.8-30.4L922.9,308c-1-1.1-3-2.9-6.1-5.5c-3.1-2.5-5.1-3.8-6.1-3.8
		c-2.3,0-3.5,2.4-3.5,7.2v22.1c0,12.9,0.1,22.2,0.3,27.8c0.2,5.6,0.7,9.7,1.3,12.4c0.7,2.7,1.9,4.4,3.5,5.1
		c3.3,1.4,9.9,2.8,19.8,4.1l-0.4,7.2c-7.2-1.1-15.9-1.7-26.2-1.7C890.2,383,873.8,383.6,856.2,384.7z"/>
	<path d="M965.9,114.9l-0.4-8.5l19.4,0.8c18.4,0.6,30.2,0.8,35.1,0.8c15.8,0,27.8-0.3,35.9-0.8h14.9l0.8,7.8c-8.1,0.6-15.8,2.2-23,5
		c-7.2,2.8-10.8,6.7-10.8,11.7c0,5.3,5.3,23,15.8,53c10.5,30.1,21.9,60.8,33.9,92.1c12.1,31.3,18.5,47.7,19.3,49.1l8.5-22.1
		c0.8-1.7,3.1-6.9,6.7-15.7c3.7-8.8,6.4-15.6,8.4-20.2l36-80.3c-10.5-24.2-17.2-39.8-20.3-46.8c-3.1-7-5.5-11.4-7.1-13.3
		c-5.1-7-12.8-10.8-23.1-11.4l-0.8-8.5c9.4,0.6,18.9,0.8,28.7,0.8c25.1,0,47.6-0.7,67.7-2.1l0.4,7.2c-9.8,1.1-17,2.6-21.7,4.5
		c-4.7,1.9-7.5,3.9-8.6,5.9c-1,2-1.5,4.4-1.5,7.3c0,4.7,4.4,20.1,13.1,46.3c8.7,26.2,19.1,55.4,31.1,87.6c12,32.2,20,52.7,23.8,61.5
		c10.2-25.2,20.3-51.6,30.3-79.1c10-27.5,17.9-50.9,23.7-70c5.8-19.1,8.7-31.6,8.7-37.4c0-11.2-3.9-18.3-11.6-21.3
		c-7.7-3-17.1-4.7-28.3-5.1l-1.7-6.8h22.1c18.5,0.6,39,0.5,61.8-0.2l16.5-0.4l-0.6,7.2c-8.5,0.8-15.6,3.1-21.2,6.8
		s-10.8,10-15.6,18.8c-4.8,8.8-10.3,21.7-16.5,38.6l-40.9,113.8c-6.9,18.6-11,29.5-12.4,32.6c-2.8,6.9-5,12.9-6.8,18.2
		c-1.8,5.2-3.9,11.3-6.2,18.2c-2.3,6.9-5,14.9-8.1,24l-6.4-0.4c-3.9-11.6-7.7-23.4-11.6-35.5c-3.9-12.1-7.2-22.5-10.1-31.3
		c-2.9-8.7-5.1-15-6.6-18.9l-34.7-95.2c-1.9,4.1-4.4,9.5-7.4,16.1c-3,6.6-5.4,11.5-7,14.7l-21.9,49.6c-5.5,12.3-10.2,23.5-14,33.9
		c-3.8,10.3-7.8,21.8-12,34.3c-4.2,12.5-7.8,23.5-10.9,32.8h-5.5l-24.2-69.6c-3.4-10.6-7.8-23.7-13.1-39.3
		c-5.3-15.6-11.5-33.5-18.6-53.6c-7.1-20.1-13.7-37.9-19.7-53.3c-6-15.4-10.7-26.2-14.2-32.4c-5-9.4-10.4-15.3-16.4-17.8
		S974.1,114.9,965.9,114.9z"/>
	<path d="M1470.9,264.7L1367.7,287c0.7,12.9,2,23,3.8,30.1c1.9,7.1,5.5,14.3,11,21.6c10.6,13.9,23.4,20.9,38.4,20.9
		c6.2,0,12.8-1.2,19.8-3.5c7-2.3,14.8-6.5,23.3-12.6l3.7,5c-24,17.2-45.2,25.8-63.8,25.8c-19.7,0-35-7.4-46.1-22.3
		c-11-14.9-16.5-31.9-16.5-51.2c0-19.7,4.2-36,12.6-49.1c8.4-13,17.8-22.5,28.3-28.4c10.5-5.9,18.4-8.9,23.8-8.9
		c6.2,0,12.6,1,19.3,3c6.7,2,13.2,5.8,19.6,11.5c6.4,5.6,11.7,13.4,16,23.1c1.2,2.1,2.4,3.4,3.5,4.1c1.1,0.7,3.1,1,6,1L1470.9,264.7
		z M1368.1,278.9l27.1-5.8c1.1-0.5,5.3-1.7,12.5-3.3c7.2-1.7,12.1-2.7,14.6-3.1c7.2-1.7,11.7-2.8,13.6-3.5c1.9-0.7,2.9-1.8,2.9-3.3
		c0-2.2-1.7-6-5-11.3c-3.3-5.3-8-10.2-14.1-14.6c-6.1-4.4-13.3-6.6-21.6-6.6c-10.3,0-17.7,5.4-22,16.3
		C1371.7,254.7,1369,266.4,1368.1,278.9z"/>
	<path d="M1485,372.9v-6.4c10.3-1.8,17.6-4.9,21.9-9.3c4.3-4.4,7-11.1,8.1-20.2c0.7-4.7,1.4-15.4,2.3-32.3s1.6-36.1,2.3-57.9
		c0.7-21.7,1-41.3,1-58.6c0-36.3-1.9-57-5.6-62.1c-2.4-3.4-7.1-5.2-14.1-5.2c-1.7,0-3,0.1-4,0.2c-1,0.1-1.9,0.3-2.7,0.4
		c-0.8,0.1-1.7,0.3-2.7,0.4v-6.5c26.4-11.1,45-20.4,55.7-28h6.2c-4.3,16.2-7,45.7-8.1,88.3l-1.7,99.3c0,46.5,1,72.9,3.1,79
		c1.2,3.6,5.4,6.3,12.4,8.2c7,1.9,13.3,3.1,18.8,3.6v7.8c-27-1.9-45.2-2.9-54.5-2.9C1510.9,370.8,1498.1,371.5,1485,372.9z"/>
	<path d="M1586.6,372.9v-6.4c10.3-1.8,17.6-4.9,21.9-9.3c4.3-4.4,7-11.1,8.1-20.2c0.7-4.7,1.4-15.4,2.3-32.3s1.6-36.1,2.3-57.9
		c0.7-21.7,1-41.3,1-58.6c0-36.3-1.9-57-5.6-62.1c-2.4-3.4-7.1-5.2-14.1-5.2c-1.7,0-3,0.1-4,0.2c-1,0.1-1.9,0.3-2.7,0.4
		c-0.8,0.1-1.7,0.3-2.7,0.4v-6.5c26.4-11.1,45-20.4,55.7-28h6.2c-4.3,16.2-7,45.7-8.1,88.3l-1.7,99.3c0,46.5,1,72.9,3.1,79
		c1.2,3.6,5.4,6.3,12.4,8.2c7,1.9,13.3,3.1,18.8,3.6v7.8c-27-1.9-45.2-2.9-54.5-2.9C1612.5,370.8,1599.7,371.5,1586.6,372.9z"/>
	<path d="M1812.5,372.9l-8.5-0.4c0.3-19.1-3.5-42.1-11.4-69c3.3-1,5.5-1.5,6.6-1.7c3.3,10.3,5.9,17.8,7.7,22.4
		c1.9,4.6,4.3,8.7,7.2,12.2c3,3.5,7.1,6.6,12.3,9.4c8.9,4.7,19.3,8.9,31,12.6c11.7,3.7,24.3,5.6,37.8,5.6c11.7,0,23.4-2.9,35.2-8.7
		c11.8-5.8,17.7-18.5,17.7-38.2c0-9.9-1.7-18.4-5.2-25.6c-3.4-7.2-8-12.9-13.5-17.3c-5.6-4.4-12-8.3-19.4-11.8
		c-7.4-3.4-16.9-7.4-28.6-11.8c-16.2-5.9-29.6-12-40.2-18.2c-10.5-6.2-18.9-13.8-25.1-22.9c-6.2-9.1-9.3-20.2-9.3-33.3
		c0-20.8,7.6-38.1,22.9-51.9c15.3-13.8,37.1-20.8,65.5-20.8c14.5,0,28.7,1.5,42.8,4.5c5.6,1.1,9.2,1.7,10.5,1.7
		c4.1,0,8.3-1.4,12.4-4.1l1.7-0.8c1.1,0,2.5,0.3,4.1,0.8c-0.4,3.2-0.8,6.3-1.1,9.4c-0.3,3.1-0.7,6.5-1,10.2
		c-0.3,3.7-0.6,6.6-0.7,8.7c-0.1,2.1-0.3,3.4-0.4,4.1c1.8,16.7,2.6,25.7,2.5,27.3l-6.2,0.4c-1.1-14-5.7-25.1-13.8-33.1
		c-8.1-8.1-17.3-13.5-27.5-16.4c-10.2-2.9-20-4.3-29.3-4.3c-22.9,0-38,6-45.3,17.9c-7.4,11.9-11,23.2-11,33.8
		c0,11.2,2.8,20.4,8.3,27.8c5.5,7.4,12.4,13.1,20.5,17.3c8.2,4.2,19.7,9.2,34.6,14.9c16.8,6.6,30.3,12.7,40.5,18.2
		c10.2,5.6,19.3,13.6,27.3,24.2c8,10.5,12,23.6,12,39.2c0,13.2-3.4,25.1-10.3,35.8c-6.9,10.6-17.2,19-31,25.2
		c-13.8,6.2-30.6,9.3-50.6,9.3c-19.4,0-39.6-2.8-60.5-8.5c-3.7-0.8-6-1.2-6.8-1.2C1813.1,365.7,1811.7,368.1,1812.5,372.9z"/>
	<path d="M2014.7,312.8l1-80.3c-6.3-0.8-13.7-1.2-22.1-1.2c0.3-1.1,0.4-2.8,0.4-5.2c12-7.3,21.3-14.3,28.1-20.9
		c6.7-6.6,14.7-16,24-28.1l-2.1,37.2c11.8,1.1,24.8,1.7,38.8,1.7c6.7,0,14.1-0.1,22.1-0.4l-0.4,12.8c-7.2,0.8-14.5,1.2-22.1,1.2
		c-0.7,0-3.4-0.1-8.1-0.3c-4.7-0.2-12-0.5-21.9-0.9c-2.6,0-4.6,0.2-5.9,0.7c-1.3,0.5-2.2,1.4-2.7,2.8c-0.5,1.4-0.8,4-1,7.8
		c-0.2,3.9-0.4,7.9-0.5,12.2l-1,64.4c-0.3,12.4,1.1,22.6,4.2,30.7s10.6,12.1,22.4,12.1c4.5,0,10.2-1,16.8-3c6.7-2,14.4-5.1,23-9.1
		c0.3,1.1,0.4,1.9,0.5,2.5c0.1,0.6,0.2,1.2,0.3,1.9c-4.8,5.3-13.7,10.5-26.5,15.6c-12.9,5.1-24.5,7.7-34.8,7.7c-9,0-16.6-3.1-23-9.2
		c-6.4-6.1-9.6-16.7-9.6-31.7V312.8z"/>
	<path d="M2159.1,250.2l-25.4,11.4c-1.1-4.4-1.7-7.6-1.7-9.7c0-7,4.3-13.5,12.9-19.5c8.6-6,18.3-10.8,29.1-14.6
		c10.8-3.7,18.3-5.6,22.6-5.6c3.7,0,8.3,1.7,13.8,5c5.5,3.3,9.9,6.6,13.2,9.9c2.9,2.8,5.1,5.5,6.7,8.2c1.6,2.7,3,6.9,4.2,12.7
		c1.2,5.8,1.9,13.2,1.9,22.1c0,2.6-0.3,11.8-1,27.7l-0.8,15.5c-0.6,7.4-0.8,13.4-0.8,17.8c0,5.6,0.8,11.7,2.3,18.2
		c1.4,6.6,4.5,9.9,9.3,9.9c5.4,0,12.5-2,21.5-6v8.5l-30.4,12.2c-6.1,2.1-9.5,3.1-10.3,3.1c-3.2,0-6.3-2.1-9.4-6.3
		c-3.1-4.2-5.6-9.2-7.5-15c-25.5,14.2-45,21.3-58.7,21.3c-8.4,0-14.7-2.4-19-7.3c-4.3-4.9-6.4-12.2-6.4-22c0-9.4,1.1-16.3,3.4-20.9
		c2.3-4.5,6-8.1,11-10.7c10.3-5.2,21.3-9.1,32.8-11.7c11.6-2.5,23.7-4.7,36.3-6.5l1-25.4v-6.8c0-11.7-3.3-21-10-27.8
		c-6.7-6.8-14.5-10.2-23.4-10.2c-4.3,0-8.6,1.2-12.9,3.6c-4.3,2.4-6.5,5.8-6.5,10.2C2157,243.5,2157.7,246.5,2159.1,250.2z
		 M2208.1,347.9c-0.4-4.5,0-17.5,1.2-38.8c-18.1-1.2-32.7,1-43.6,6.6c-11,5.6-16.5,12.7-16.5,21.3c0,6.2,1.7,12.1,5,17.6
		c3.4,5.5,8,8.3,13.9,8.3C2174.7,362.8,2188,357.8,2208.1,347.9z"/>
	<path d="M2296.9,312.8l1-80.3c-6.3-0.8-13.7-1.2-22.1-1.2c0.3-1.1,0.4-2.8,0.4-5.2c12-7.3,21.3-14.3,28.1-20.9
		c6.7-6.6,14.7-16,24-28.1l-2.1,37.2c11.8,1.1,24.8,1.7,38.8,1.7c6.7,0,14.1-0.1,22.1-0.4l-0.4,12.8c-7.2,0.8-14.5,1.2-22.1,1.2
		c-0.7,0-3.4-0.1-8.1-0.3c-4.7-0.2-12-0.5-21.9-0.9c-2.6,0-4.6,0.2-5.9,0.7c-1.3,0.5-2.2,1.4-2.7,2.8c-0.5,1.4-0.8,4-1,7.8
		c-0.2,3.9-0.4,7.9-0.5,12.2l-1,64.4c-0.3,12.4,1.1,22.6,4.2,30.7s10.6,12.1,22.4,12.1c4.5,0,10.2-1,16.8-3c6.7-2,14.4-5.1,23-9.1
		c0.3,1.1,0.4,1.9,0.5,2.5c0.1,0.6,0.2,1.2,0.3,1.9c-4.8,5.3-13.7,10.5-26.5,15.6c-12.9,5.1-24.5,7.7-34.8,7.7c-9,0-16.6-3.1-23-9.2
		c-6.4-6.1-9.6-16.7-9.6-31.7V312.8z"/>
	<path d="M2404.1,372.9l0.8-6.4c11.7-1.1,18.3-3.2,19.8-6.2c0.7-1.2,1.3-6.2,1.9-14.8c0.5-8.6,1-18.9,1.3-30.8
		c0.3-11.9,0.5-18.6,0.5-20.1c0-19.6-0.3-32.1-0.9-37.6c-0.6-5.5-1.8-9.3-3.6-11.4c-0.6-0.7-4-1.4-10.3-2.1
		c-6.3-0.7-9.5-1.6-9.5-2.7c0-2.2,1.2-3.6,3.7-4.1c16.4-5.1,32.4-14.1,48.1-27.1c1,0,2.3,0.3,3.9,0.8c-1.4,5.6-2.5,13.9-3.5,24.8
		c-1,10.9-1.8,22.3-2.4,34.3c-0.6,12-0.9,22.6-0.9,31.8c0,6.9,0.2,16.8,0.7,29.6c0.5,12.9,1.3,21.6,2.6,26.1
		c1.1,2.5,2.5,4.1,4.1,4.8c1.7,0.7,5,1.2,9.9,1.7c4.8,0.1,9.6,0.6,14.5,1.2l2.5,6L2404.1,372.9z M2435.2,125.9
		c0-4.7,1.6-8.5,4.8-11.6c3.2-3,7-4.5,11.4-4.5c4.4,0,8.1,1.6,11.2,4.8c3,3.2,4.5,7,4.5,11.4c0,4.4-1.5,8.2-4.4,11.4
		c-3,3.2-6.7,4.8-11.3,4.8c-4.4,0-8.2-1.6-11.4-4.8C2436.8,134.1,2435.2,130.3,2435.2,125.9z"/>
	<path d="M2508.2,294.6c0-12.1,2.2-23.1,6.7-32.9c4.5-9.8,10.6-18.3,18.5-25.5c7.8-7.2,17-12.7,27.5-16.5
		c10.5-3.9,21.7-5.8,33.7-5.8c10.9,0,21.2,2,30.9,6c9.7,4,18.2,9.5,25.5,16.5c7.3,7,13,15.3,17.2,24.9c4.2,9.6,6.3,19.9,6.3,30.9
		c0,14.3-3.4,27.7-10.2,40.3c-6.8,12.5-16.5,22.6-28.9,30.3c-12.5,7.6-26.8,11.5-43.1,11.5c-12.3,0-24.9-2.7-37.9-8.1
		c-13-5.4-24-14-32.8-25.9C2512.6,328.2,2508.2,313.1,2508.2,294.6z M2535.2,283.2c0,12.8,2.5,25.5,7.6,38.2
		c5.1,12.7,12.2,23.1,21.4,31.2c9.2,8.1,19.2,12.2,30.3,12.2c9.6,0,18.4-2.6,26.2-8c7.8-5.3,14.1-12.8,18.8-22.6
		c4.7-9.8,7-20.9,7-33.3c0-12.5-2.7-24.7-8.2-36.7c-5.4-11.9-12.9-21.6-22.5-29.1c-9.6-7.5-20.1-11.3-31.7-11.3
		c-9.4,0-17.8,2.5-25.2,7.6c-7.4,5.1-13.3,12.2-17.5,21.3C2537.3,262,2535.2,272.1,2535.2,283.2z"/>
	<path d="M2698.2,369.2l-0.4-6c7.4-1.4,12.9-2.8,16.3-4.3c3.4-1.5,5.7-3.2,6.8-5.2c1.1-1.9,1.9-4.5,2.3-7.8
		c1.1-7.6,1.9-16.8,2.3-27.8s0.6-22.1,0.6-33.4c0-15.7-0.5-26.4-1.5-32.1c-1-5.7-3.2-9.3-6.6-10.9c-3.4-1.6-9.7-2.9-18.9-3.8
		c0-1.8-0.1-3.2-0.4-4c5.9-1.5,13.9-4.5,23.7-8.8c9.9-4.4,15.1-6.8,15.7-7.4c5.3-2.8,8.4-4.2,9.3-4.2c2.1,0,3.4,2,3.9,6
		c0.6,4,0.8,10.6,0.8,19.8c15.1-8.5,27.6-14.6,37.3-18.3c9.8-3.6,19.1-5.5,28-5.5c13.3,0,23.1,2.9,29.2,8.8
		c6.1,5.9,9.9,12.9,11.3,21.3c1.4,8.3,2.2,19.3,2.2,32.9v49.2c0,19.4,0.9,30,2.7,31.8c1,1,4.5,2.1,10.5,3.5
		c6.1,1.4,9.6,2.3,10.5,2.7l0.4,6.4c-10.3-1.7-22.3-2.5-35.9-2.5c-11.6,0-25.4,0.8-41.5,2.5v-6c12.5-2.5,20.3-6.4,23.3-11.8
		c2.1-4.5,3.5-14.1,4.2-28.8c0.8-14.7,1.1-26.1,1.1-34.2c0-12.1-0.5-22.1-1.5-29.8c-1-7.8-3.9-14.4-8.6-19.9
		c-4.7-5.5-12-8.3-21.8-8.3c-4.4,0-11.1,0.9-20,2.7c-8.9,1.8-19.4,5.9-31.5,12.2l-1.2,54.9c-0.3,23.4,0,38.9,0.8,46.5
		c0.3,3.3,0.9,5.8,2,7.4c1,1.7,3.3,3.1,6.9,4.4c3.6,1.3,9.6,2.4,18.2,3.4l-0.4,6.4c-3-0.3-7.4-0.6-13-1c-5.7-0.4-12.9-0.8-21.7-1
		H2698.2z"/>
	<path d="M3035,264.7L2931.8,287c0.7,12.9,2,23,3.8,30.1c1.9,7.1,5.5,14.3,11,21.6c10.6,13.9,23.4,20.9,38.4,20.9
		c6.2,0,12.8-1.2,19.8-3.5c7-2.3,14.8-6.5,23.3-12.6l3.7,5c-24,17.2-45.2,25.8-63.8,25.8c-19.7,0-35-7.4-46.1-22.3
		c-11-14.9-16.5-31.9-16.5-51.2c0-19.7,4.2-36,12.6-49.1c8.4-13,17.8-22.5,28.3-28.4c10.5-5.9,18.4-8.9,23.8-8.9
		c6.2,0,12.6,1,19.3,3c6.7,2,13.2,5.8,19.6,11.5c6.4,5.6,11.7,13.4,16,23.1c1.2,2.1,2.4,3.4,3.5,4.1c1.1,0.7,3.1,1,6,1L3035,264.7z
		 M2932.2,278.9l27.1-5.8c1.1-0.5,5.3-1.7,12.5-3.3c7.2-1.7,12.1-2.7,14.6-3.1c7.2-1.7,11.7-2.8,13.6-3.5c1.9-0.7,2.9-1.8,2.9-3.3
		c0-2.2-1.7-6-5-11.3c-3.3-5.3-8-10.2-14.1-14.6c-6.1-4.4-13.3-6.6-21.6-6.6c-10.3,0-17.7,5.4-22,16.3
		C2935.8,254.7,2933.1,266.4,2932.2,278.9z"/>
	<path d="M3053.6,372.5l0.4-6c6.9-1.4,11.6-2.7,14.3-4.1c2.6-1.4,4.9-4.6,6.8-9.7c1.9-5.1,3.2-12.7,3.8-22.9
		c0.6-10.2,0.9-25.8,0.9-46.8c0-16.6-0.9-27.7-2.7-33.2c-1.8-5.5-6.3-8.2-13.4-8.2c-4.3,0-8.6,0.6-13,1.7l0.8-6.7l53.3-31.1
		c0.5,8.5,0.8,20.2,0.8,35.1l22.1-12.6c1.1-0.7,2.1-1.3,2.9-1.9c1.5-0.8,3.2-1.8,5.2-3c1.9-1.2,5.2-3.2,9.9-6
		c4.7-2.8,8.4-5.1,11.2-6.9l1.7,0.8c0.8,0.8,1.8,1.5,2.9,2.1c4.1,1.9,7.4,4.1,9.7,6.6c2.3,2.5,3.5,6.1,3.5,10.7
		c0,5.4-2.2,9.8-6.6,13.2c-4.4,3.4-9.7,5.5-15.9,6.2c0-4.7-1.1-8.3-3.3-10.7c-2.2-2.5-5.3-3.7-9.3-3.7c-4.1,0-9,1.5-14.7,4.4
		c-5.6,3-9.9,5.8-12.8,8.4c-3.4,3-5.5,5.5-6.1,7.5c-0.6,2-1,6.9-1.1,14.8c-0.8,23.3-1.2,35.6-1.2,37c0,26.8,1.4,43.4,4.1,49.8
		c1.2,2.2,2.6,3.5,4.1,4c1.5,0.5,4.1,0.7,7.8,0.7l5.4-0.4l24.6-0.4l-0.4,8.5c-0.7,0-5,0.1-13,0.4c-8,0.3-13.4,0.4-16.1,0.4
		L3053.6,372.5z"/>
	<path d="M3187.2,325.6l7.2,0.4c0,2.6,2.2,6.9,6.7,12.8c4.5,5.9,10.5,11.3,18.1,16c7.6,4.8,15.8,7.1,24.8,7.1
		c6.5,0,12.9-1.4,19.4-4.1c6.5-2.8,9.7-8.7,9.7-18c0-9.6-3.3-17.4-10-23.3c-6.8-5.8-14.4-10.8-23-15.1l-15.5-7.2
		c-9.1-4.7-16.4-9.6-21.7-14.9c-5.4-5.1-8.1-11.7-8.1-19.8c0-6.3,2.3-13,6.8-19.9c4.6-7,11.1-12.7,19.8-17.2
		c8.6-4.5,18.4-6.8,29.3-6.8c6.6,0,17.7,1,33.1,3.1l6.8,35.1h-7.2c-1.2-4.8-4.1-9.4-8.6-13.7c-4.5-4.3-9.7-8-15.7-11
		c-6-3-11.2-4.5-15.4-4.5c-7.3,0-13.3,2.3-17.8,6.8c-4.6,4.6-6.8,10.4-6.8,17.4c0,5.7,1.7,10.1,5,13.5c3.3,3.5,9.6,7.4,18.9,12
		l12.6,6c11.4,5.3,21.2,11.6,29.4,18.8c8.1,7.3,12.2,17.3,12.2,30.2c0,4.8-1,9.9-3,15.4c-2,5.4-5,9.3-9,11.7
		c-11.5,7.3-20.9,12-28.4,14.1c-7.4,2.1-15,3.2-22.8,3.2c-2.8,0-6.7-0.3-11.8-1c-5.1-0.7-8.7-1.2-10.8-1.7
		c-2.1-0.4-5.7-1.4-10.8-2.9c-5.1-1.5-8.4-2.5-9.9-2.9c1.1-5.5,1.7-9.4,1.7-11.8c0-3.4-0.6-8.2-1.8-14.1
		C3189.5,332.9,3188.3,328.5,3187.2,325.6z"/>
</g>
</svg>
